<svg clip-rule="evenodd" fill-rule="evenodd" stroke-linejoin="round" stroke-miterlimit="2" viewBox="13.723 16.549 976.4910000000001 380.2880000000001" xmlns="http://www.w3.org/2000/svg" width="2500" height="945"><path d="M14.876 254.867V17.618h45.023c26.117 0 51.765.699 56.547.699 32.304 0 45.681 12.185 55.816 22.399 10.135 10.215 12.581 28.069 12.645 41.94.161 35.092-17.075 43.199-27.47 49.65 23.42 10.12 37.125 27.603 36.773 56.392-.538 43.921-28.612 55.595-41.736 61.025-13.123 5.43-34.168 5.144-57.297 5.144zM85.015 75.291v33.293l11.342-.06c16.131 0 19.58-9.444 19.58-17.401 0-8.997-4.101-15.567-19.58-15.567zm.196 83.813v38.716s0 .175 11.146.1c21.466-.144 28.251-7.459 27.964-20.913-.224-10.467-8.325-17.903-27.806-17.903zM203.87 96.353h58.847l.127 158.517h-58.847zm29.433-74.564c23.18 0 33.917 18.615 33.917 34.474 0 17.524-12.208 34.088-33.53 34.088-23.106 0-34.111-19.524-34.111-34.862 0-14.781 9.957-33.7 33.724-33.7zm141.303 74.917H433.3v136.547c0 26.958 2.989 54.639-14.86 75.543-16.946 19.847-19.27 24.905-102.057 23.435l-.003-57.188s23.254.188 29.898.188c13.004 0 24.145-7.238 24.484-15.327.336-8.014-.634-10.836-2.205-15.319-7.033 7.033-23.193 14.886-32.96 14.886-31.544 0-62.898-24.494-62.898-83.859 0-52.148 29.766-82.569 63.05-82.569 19.784 0 30.653 13.528 38.857 21.244zM359.464 153.5c-11.604 0-18.629 9.316-18.629 22.112 0 13.283 5.314 22.72 18.598 22.72 12.327 0 16.627-7.751 16.627-22.72 0-13.284-6.736-22.112-16.596-22.112z" fill="#004b95" fill-rule="nonzero"/><path d="M442.736 16.549h88.385l36.281 110.071 37.476-110.071h87.654V254.87h-66.714l-.05-79.258-31.34 80.278-51.63-.159-32.894-80.119v80.119h-67.168z" fill="#ff0005" fill-rule="nonzero"/><path d="M442.736 275.231c-.181 9.34-.226 32.892-32.156 57h556.443v-57zm-427.86 0h290.986v55.952H14.876z" fill="#004b95"/><g fill-rule="nonzero"><path d="M804.705 96.706h66.473V254.87l-66.439.451v-20.243c-11.282 18.516-29.275 24.392-39.043 24.393-32.24.006-62.897-24.494-62.897-83.859 0-52.148 29.765-82.569 63.049-82.569 19.784 0 30.653 13.528 38.857 21.244zM789.563 153.5c-11.604 0-18.629 9.316-18.629 22.112 0 13.283 5.315 22.72 18.598 22.72 9.857 0 16.147-7.751 16.147-22.72 0-13.284-7.277-22.112-16.116-22.112zm114.293-90.048h63.168v33.344h23.19v57.859h-23.19V254.87h-63.168V154.655h-23.058V96.796h23.058z" fill="#ff0006"/><path d="M13.723 395.887v-35.4h8.6v27.95h13.7v7.45zm28.9 0v-35.4h23.8v7.25h-15.55v6.65h14.7v6.85h-14.7v7.35h16.45v7.3zm51.65-26.2c-.733-.933-1.691-1.675-2.875-2.225-1.183-.55-2.325-.825-3.425-.825-.566 0-1.141.05-1.725.15-.583.1-1.108.292-1.575.575-.466.284-.858.65-1.175 1.1-.316.45-.475 1.025-.475 1.725 0 .6.125 1.1.375 1.5s.617.75 1.1 1.05a9.85 9.85 0 0 0 1.725.825c.667.25 1.417.509 2.25.775 1.2.4 2.45.842 3.75 1.325 1.3.484 2.484 1.125 3.55 1.925 1.067.8 1.95 1.792 2.65 2.975.7 1.184 1.05 2.659 1.05 4.425 0 2.034-.375 3.792-1.125 5.275-.75 1.484-1.758 2.709-3.025 3.675-1.266.967-2.716 1.684-4.35 2.15-1.633.467-3.316.7-5.05.7a20.84 20.84 0 0 1-7.35-1.325c-2.366-.883-4.333-2.141-5.9-3.775l5.6-5.7c.867 1.067 2.009 1.959 3.425 2.675 1.417.717 2.825 1.075 4.225 1.075.634 0 1.25-.066 1.85-.2.6-.133 1.125-.35 1.575-.65s.809-.7 1.075-1.2c.267-.5.4-1.1.4-1.8 0-.666-.166-1.233-.5-1.7-.333-.466-.808-.891-1.425-1.275-.616-.383-1.383-.733-2.3-1.05-.916-.316-1.958-.658-3.125-1.025a29.811 29.811 0 0 1-3.325-1.3 11.118 11.118 0 0 1-2.9-1.925 8.913 8.913 0 0 1-2.05-2.85c-.516-1.116-.775-2.475-.775-4.075 0-1.966.4-3.65 1.2-5.05s1.85-2.55 3.15-3.45 2.767-1.558 4.4-1.975a19.99 19.99 0 0 1 4.95-.625c2 0 4.042.367 6.125 1.1 2.084.734 3.909 1.817 5.475 3.25zm56.15 15.9c0 1.934-.383 3.559-1.15 4.875a9.115 9.115 0 0 1-3.05 3.175c-1.266.8-2.708 1.375-4.325 1.725a23.44 23.44 0 0 1-4.975.525h-14.1v-35.4h14.1c1.367 0 2.767.142 4.2.425 1.434.284 2.734.767 3.9 1.45a8.26 8.26 0 0 1 2.85 2.775c.734 1.167 1.1 2.65 1.1 4.45 0 1.967-.533 3.592-1.6 4.875-1.066 1.284-2.466 2.209-4.2 2.775v.1c1 .167 1.942.475 2.825.925a8.157 8.157 0 0 1 2.3 1.725c.65.7 1.167 1.517 1.55 2.45.384.934.575 1.984.575 3.15zm-9.7-14.85c0-1.2-.458-2.075-1.375-2.625-.916-.55-2.275-.825-4.075-.825h-4.2v7.3h4.6c1.6 0 2.842-.325 3.725-.975.884-.65 1.325-1.608 1.325-2.875zm1.15 14.05c0-1.466-.55-2.483-1.65-3.05-1.1-.566-2.566-.85-4.4-.85h-4.75v8.1h4.8c.667 0 1.359-.058 2.075-.175a6.503 6.503 0 0 0 1.95-.625 3.737 3.737 0 0 0 1.425-1.275c.367-.55.55-1.258.55-2.125zm40.8 11.1l-2.75-6.95h-13.7l-2.6 6.95h-9.3l14.85-35.4h8.3l14.7 35.4zm-9.5-25.95l-4.5 12.15h8.9zm3.55-12.25l-3.4-4.05-3.4 4.05h-6.4l6.2-7.2h7.4l6.1 7.2zm33.15 10.1v28.1h-8.55v-28.1h-10v-7.3h28.55v7.3zm16.5-7.3h8.6v35.4h-8.6zm37.2 9.2c-.733-.933-1.691-1.675-2.875-2.225-1.183-.55-2.325-.825-3.425-.825-.566 0-1.141.05-1.725.15-.583.1-1.108.292-1.575.575-.466.284-.858.65-1.175 1.1-.316.45-.475 1.025-.475 1.725 0 .6.125 1.1.375 1.5s.617.75 1.1 1.05a9.85 9.85 0 0 0 1.725.825c.667.25 1.417.509 2.25.775 1.2.4 2.45.842 3.75 1.325 1.3.484 2.484 1.125 3.55 1.925 1.067.8 1.95 1.792 2.65 2.975.7 1.184 1.05 2.659 1.05 4.425 0 2.034-.375 3.792-1.125 5.275-.75 1.484-1.758 2.709-3.025 3.675-1.266.967-2.716 1.684-4.35 2.15-1.633.467-3.316.7-5.05.7a20.84 20.84 0 0 1-7.35-1.325c-2.366-.883-4.333-2.141-5.9-3.775l5.6-5.7c.867 1.067 2.009 1.959 3.425 2.675 1.417.717 2.825 1.075 4.225 1.075.634 0 1.25-.066 1.85-.2.6-.133 1.125-.35 1.575-.65s.809-.7 1.075-1.2c.267-.5.4-1.1.4-1.8 0-.666-.166-1.233-.5-1.7-.333-.466-.808-.891-1.425-1.275-.616-.383-1.383-.733-2.3-1.05-.916-.316-1.958-.658-3.125-1.025a29.811 29.811 0 0 1-3.325-1.3 11.118 11.118 0 0 1-2.9-1.925 8.913 8.913 0 0 1-2.05-2.85c-.516-1.116-.775-2.475-.775-4.075 0-1.966.4-3.65 1.2-5.05s1.85-2.55 3.15-3.45 2.767-1.558 4.4-1.975a19.99 19.99 0 0 1 4.95-.625c2 0 4.042.367 6.125 1.1 2.084.734 3.909 1.817 5.475 3.25zm32.15 0c-.733-.933-1.691-1.675-2.875-2.225-1.183-.55-2.325-.825-3.425-.825-.566 0-1.141.05-1.725.15-.583.1-1.108.292-1.575.575-.466.284-.858.65-1.175 1.1-.316.45-.475 1.025-.475 1.725 0 .6.125 1.1.375 1.5s.617.75 1.1 1.05a9.85 9.85 0 0 0 1.725.825c.667.25 1.417.509 2.25.775 1.2.4 2.45.842 3.75 1.325 1.3.484 2.484 1.125 3.55 1.925 1.067.8 1.95 1.792 2.65 2.975.7 1.184 1.05 2.659 1.05 4.425 0 2.034-.375 3.792-1.125 5.275-.75 1.484-1.758 2.709-3.025 3.675-1.266.967-2.716 1.684-4.35 2.15-1.633.467-3.316.7-5.05.7a20.84 20.84 0 0 1-7.35-1.325c-2.366-.883-4.333-2.141-5.9-3.775l5.6-5.7c.867 1.067 2.009 1.959 3.425 2.675 1.417.717 2.825 1.075 4.225 1.075.634 0 1.25-.066 1.85-.2.6-.133 1.125-.35 1.575-.65s.809-.7 1.075-1.2c.267-.5.4-1.1.4-1.8 0-.666-.166-1.233-.5-1.7-.333-.466-.808-.891-1.425-1.275-.616-.383-1.383-.733-2.3-1.05-.916-.316-1.958-.658-3.125-1.025a29.811 29.811 0 0 1-3.325-1.3 11.118 11.118 0 0 1-2.9-1.925 8.913 8.913 0 0 1-2.05-2.85c-.516-1.116-.775-2.475-.775-4.075 0-1.966.4-3.65 1.2-5.05s1.85-2.55 3.15-3.45 2.767-1.558 4.4-1.975a19.99 19.99 0 0 1 4.95-.625c2 0 4.042.367 6.125 1.1 2.084.734 3.909 1.817 5.475 3.25zm13.45 26.2v-35.4h23.8v7.25h-15.55v6.65h14.7v6.85h-14.7v7.35h16.45v7.3zm62.95-13.35c0 2.134-.358 4.075-1.075 5.825-.716 1.75-1.741 3.25-3.075 4.5-1.333 1.25-2.941 2.225-4.825 2.925-1.883.7-3.975 1.05-6.275 1.05-2.333 0-4.433-.35-6.3-1.05-1.866-.7-3.45-1.675-4.75-2.925s-2.3-2.75-3-4.5-1.05-3.691-1.05-5.825v-22.05h8.5v21.35c0 .967.125 1.884.375 2.75.25.867.634 1.642 1.15 2.325.517.684 1.2 1.225 2.05 1.625s1.875.6 3.075.6 2.225-.2 3.075-.6 1.542-.941 2.075-1.625a6.448 6.448 0 0 0 1.15-2.325c.234-.866.35-1.783.35-2.75v-21.35h8.55zm28.45 13.35l-7.65-14.05h-2.9v14.05h-8.4v-35.4h13.5c1.7 0 3.359.175 4.975.525 1.617.35 3.067.942 4.35 1.775a9.283 9.283 0 0 1 3.075 3.3c.767 1.367 1.15 3.067 1.15 5.1 0 2.4-.65 4.417-1.95 6.05-1.3 1.634-3.1 2.8-5.4 3.5l9.25 15.15zm-.35-24.55c0-.833-.175-1.508-.525-2.025-.35-.516-.8-.916-1.35-1.2a5.867 5.867 0 0 0-1.85-.575c-.683-.1-1.341-.15-1.975-.15h-4.55v8.25h4.05c.7 0 1.417-.058 2.15-.175a6.824 6.824 0 0 0 2-.625c.6-.3 1.092-.733 1.475-1.3.384-.566.575-1.3.575-2.2zm35.85-1.65c-.733-.933-1.691-1.675-2.875-2.225-1.183-.55-2.325-.825-3.425-.825-.566 0-1.141.05-1.725.15-.583.1-1.108.292-1.575.575-.466.284-.858.65-1.175 1.1-.316.45-.475 1.025-.475 1.725 0 .6.125 1.1.375 1.5s.617.75 1.1 1.05a9.85 9.85 0 0 0 1.725.825c.667.25 1.417.509 2.25.775 1.2.4 2.45.842 3.75 1.325 1.3.484 2.484 1.125 3.55 1.925 1.067.8 1.95 1.792 2.65 2.975.7 1.184 1.05 2.659 1.05 4.425 0 2.034-.375 3.792-1.125 5.275-.75 1.484-1.758 2.709-3.025 3.675-1.266.967-2.716 1.684-4.35 2.15-1.633.467-3.316.7-5.05.7a20.84 20.84 0 0 1-7.35-1.325c-2.366-.883-4.333-2.141-5.9-3.775l5.6-5.7c.867 1.067 2.009 1.959 3.425 2.675 1.417.717 2.825 1.075 4.225 1.075.634 0 1.25-.066 1.85-.2.6-.133 1.125-.35 1.575-.65s.809-.7 1.075-1.2c.267-.5.4-1.1.4-1.8 0-.666-.166-1.233-.5-1.7-.333-.466-.808-.891-1.425-1.275-.616-.383-1.383-.733-2.3-1.05-.916-.316-1.958-.658-3.125-1.025a29.811 29.811 0 0 1-3.325-1.3 11.118 11.118 0 0 1-2.9-1.925 8.913 8.913 0 0 1-2.05-2.85c-.516-1.116-.775-2.475-.775-4.075 0-1.966.4-3.65 1.2-5.05s1.85-2.55 3.15-3.45 2.767-1.558 4.4-1.975a19.99 19.99 0 0 1 4.95-.625c2 0 4.042.367 6.125 1.1 2.084.734 3.909 1.817 5.475 3.25zm65.45 8.35c0 2.8-.483 5.359-1.45 7.675-.966 2.317-2.308 4.3-4.025 5.95-1.716 1.65-3.758 2.925-6.125 3.825-2.366.9-4.933 1.35-7.7 1.35-2.766 0-5.325-.45-7.675-1.35s-4.383-2.175-6.1-3.825c-1.716-1.65-3.058-3.633-4.025-5.95-.966-2.316-1.45-4.875-1.45-7.675 0-2.833.484-5.391 1.45-7.675.967-2.283 2.309-4.225 4.025-5.825 1.717-1.6 3.75-2.833 6.1-3.7 2.35-.866 4.909-1.3 7.675-1.3 2.767 0 5.334.434 7.7 1.3 2.367.867 4.409 2.1 6.125 3.7 1.717 1.6 3.059 3.542 4.025 5.825.967 2.284 1.45 4.842 1.45 7.675zm-9.15 0c0-1.533-.25-2.966-.75-4.3-.5-1.333-1.191-2.475-2.075-3.425a9.575 9.575 0 0 0-3.2-2.25c-1.25-.55-2.625-.825-4.125-.825s-2.866.275-4.1.825a9.93 9.93 0 0 0-3.2 2.25c-.9.95-1.591 2.092-2.075 3.425-.483 1.334-.725 2.767-.725 4.3 0 1.6.25 3.075.75 4.425s1.192 2.509 2.075 3.475a9.48 9.48 0 0 0 3.175 2.275c1.234.55 2.6.825 4.1.825s2.867-.275 4.1-.825a9.733 9.733 0 0 0 3.2-2.275c.9-.966 1.6-2.125 2.1-3.475s.75-2.825.75-4.425zm39.9 17.85l-14.25-23.15h-.15l.2 23.15h-8.3v-35.4h9.75l14.2 23.1h.15l-.2-23.1h8.3v35.4zm34.75-28.1v28.1h-8.55v-28.1h-10v-7.3h28.55v7.3zm30.4 28.1v-35.4h8.6v27.95h13.7v7.45zm28.9 0v-35.4h23.8v7.25h-15.55v6.65h14.7v6.85h-14.7v7.35h16.45v7.3zm62.95-13.35c0 2.134-.358 4.075-1.075 5.825-.716 1.75-1.741 3.25-3.075 4.5-1.333 1.25-2.941 2.225-4.825 2.925-1.883.7-3.975 1.05-6.275 1.05-2.333 0-4.433-.35-6.3-1.05-1.866-.7-3.45-1.675-4.75-2.925s-2.3-2.75-3-4.5-1.05-3.691-1.05-5.825v-22.05h8.5v21.35c0 .967.125 1.884.375 2.75.25.867.634 1.642 1.15 2.325.517.684 1.2 1.225 2.05 1.625s1.875.6 3.075.6 2.225-.2 3.075-.6 1.542-.941 2.075-1.625a6.448 6.448 0 0 0 1.15-2.325c.234-.866.35-1.783.35-2.75v-21.35h8.55zm28.45 13.35l-7.65-14.05h-2.9v14.05h-8.4v-35.4h13.5c1.7 0 3.359.175 4.975.525 1.617.35 3.067.942 4.35 1.775a9.283 9.283 0 0 1 3.075 3.3c.767 1.367 1.15 3.067 1.15 5.1 0 2.4-.65 4.417-1.95 6.05-1.3 1.634-3.1 2.8-5.4 3.5l9.25 15.15zm-.35-24.55c0-.833-.175-1.508-.525-2.025-.35-.516-.8-.916-1.35-1.2a5.867 5.867 0 0 0-1.85-.575c-.683-.1-1.341-.15-1.975-.15h-4.55v8.25h4.05c.7 0 1.417-.058 2.15-.175a6.824 6.824 0 0 0 2-.625c.6-.3 1.092-.733 1.475-1.3.384-.566.575-1.3.575-2.2zm64.35 24.55l.2-25.05h-.15l-9.2 25.05h-6l-8.95-25.05h-.15l.2 25.05h-8.05v-35.4h12.15l8.05 22.7h.2l7.7-22.7h12.35v35.4zm42.25 0l-2.75-6.95h-13.7l-2.6 6.95h-9.3l14.85-35.4h8.3l14.7 35.4zm-9.5-25.95l-4.5 12.15h8.9zm24.55-9.45h8.6v35.4h-8.6zm37.2 9.2c-.733-.933-1.691-1.675-2.875-2.225-1.183-.55-2.325-.825-3.425-.825-.566 0-1.141.05-1.725.15-.583.1-1.108.292-1.575.575-.466.284-.858.65-1.175 1.1-.316.45-.475 1.025-.475 1.725 0 .6.125 1.1.375 1.5s.617.75 1.1 1.05a9.85 9.85 0 0 0 1.725.825c.667.25 1.417.509 2.25.775 1.2.4 2.45.842 3.75 1.325 1.3.484 2.484 1.125 3.55 1.925 1.067.8 1.95 1.792 2.65 2.975.7 1.184 1.05 2.659 1.05 4.425 0 2.034-.375 3.792-1.125 5.275-.75 1.484-1.758 2.709-3.025 3.675-1.266.967-2.716 1.684-4.35 2.15-1.633.467-3.316.7-5.05.7a20.84 20.84 0 0 1-7.35-1.325c-2.366-.883-4.333-2.141-5.9-3.775l5.6-5.7c.867 1.067 2.009 1.959 3.425 2.675 1.417.717 2.825 1.075 4.225 1.075.634 0 1.25-.066 1.85-.2.6-.133 1.125-.35 1.575-.65s.809-.7 1.075-1.2c.267-.5.4-1.1.4-1.8 0-.666-.166-1.233-.5-1.7-.333-.466-.808-.891-1.425-1.275-.616-.383-1.383-.733-2.3-1.05-.916-.316-1.958-.658-3.125-1.025a29.811 29.811 0 0 1-3.325-1.3 11.118 11.118 0 0 1-2.9-1.925 8.913 8.913 0 0 1-2.05-2.85c-.516-1.116-.775-2.475-.775-4.075 0-1.966.4-3.65 1.2-5.05s1.85-2.55 3.15-3.45 2.767-1.558 4.4-1.975a19.99 19.99 0 0 1 4.95-.625c2 0 4.042.367 6.125 1.1 2.084.734 3.909 1.817 5.475 3.25zm50.35 8.35c0 2.8-.483 5.359-1.45 7.675-.966 2.317-2.308 4.3-4.025 5.95-1.716 1.65-3.758 2.925-6.125 3.825-2.366.9-4.933 1.35-7.7 1.35-2.766 0-5.325-.45-7.675-1.35s-4.383-2.175-6.1-3.825c-1.716-1.65-3.058-3.633-4.025-5.95-.966-2.316-1.45-4.875-1.45-7.675 0-2.833.484-5.391 1.45-7.675.967-2.283 2.309-4.225 4.025-5.825 1.717-1.6 3.75-2.833 6.1-3.7 2.35-.866 4.909-1.3 7.675-1.3 2.767 0 5.334.434 7.7 1.3 2.367.867 4.409 2.1 6.125 3.7 1.717 1.6 3.059 3.542 4.025 5.825.967 2.284 1.45 4.842 1.45 7.675zm-9.15 0c0-1.533-.25-2.966-.75-4.3-.5-1.333-1.191-2.475-2.075-3.425a9.575 9.575 0 0 0-3.2-2.25c-1.25-.55-2.625-.825-4.125-.825s-2.866.275-4.1.825a9.93 9.93 0 0 0-3.2 2.25c-.9.95-1.591 2.092-2.075 3.425-.483 1.334-.725 2.767-.725 4.3 0 1.6.25 3.075.75 4.425s1.192 2.509 2.075 3.475a9.48 9.48 0 0 0 3.175 2.275c1.234.55 2.6.825 4.1.825s2.867-.275 4.1-.825a9.733 9.733 0 0 0 3.2-2.275c.9-.966 1.6-2.125 2.1-3.475s.75-2.825.75-4.425zm39.9 17.85l-14.25-23.15h-.15l.2 23.15h-8.3v-35.4h9.75l14.2 23.1h.15l-.2-23.1h8.3v35.4z"/></g></svg>