<svg viewBox="0 0 178.16 34.02" xmlns="http://www.w3.org/2000/svg"><defs><style>.cls-1{fill:#231f20}.cls-2{fill:#005296}</style></defs><g><g><path class="cls-1" d="M1.82 12.61h8.8v8.8h-8.8z" transform="rotate(45 6.225 17.008)"></path><path class="cls-2" d="M14.82.9h8.85v15.2h-8.85z" transform="rotate(-45 19.244 8.509)"></path><path class="cls-1" d="M21.49 17.01L10.74 27.76 17 34.02l10.74-10.75V10.75l-6.25 6.26z"></path><path class="cls-2" d="M45 8.09h8.15A5.56 5.56 0 0 1 59 14a5.54 5.54 0 0 1-5.85 5.81h-4.43v6.52H45zm7.65 3.33h-3.93v5h3.94a2.42 2.42 0 0 0 2.56-2.51 2.44 2.44 0 0 0-2.55-2.49zM69 19.77h-2.67v6.52h-3.71V8.09h8.15A5.54 5.54 0 0 1 76.62 14a5.19 5.19 0 0 1-3.81 5.41l3.92 6.93h-4.26zm1.18-8.35h-3.85v5h3.89a2.51 2.51 0 1 0 0-5zM89 7.79c5.28 0 9.12 3.93 9.12 9.42s-3.86 9.41-9.12 9.41-9.09-3.93-9.09-9.42S83.73 7.79 89 7.79zm0 3.44c-3.21 0-5.28 2.57-5.28 6s2.06 6 5.28 6 5.3-2.59 5.3-6-2.1-6.01-5.3-6.01zM102 8.09h3.71v14.8h7.37v3.41H102zM117 8.09h3.71v18.2H117zM136.56 23.15h-7.79l-1.1 3.14h-4.07l6.74-18.21H135l6.71 18.21h-4zm-6.79-3.36h5.77l-2.87-8.35zM148.35 14.06v12.23h-3.71V8.09h3.81l8.07 11.79V8.09h3.71v18.2h-3.58zM165.83 20.78a7.49 7.49 0 0 0 5.54 2.46c2 0 3-1 3-2 0-1.37-1.52-1.83-3.53-2.32-2.85-.68-6.5-1.5-6.5-5.57 0-3 2.51-5.49 6.61-5.49a9.45 9.45 0 0 1 6.79 2.54l-2.06 2.84a7.25 7.25 0 0 0-5-2c-1.67 0-2.56.76-2.56 1.86s1.46 1.61 3.47 2.1c2.87.68 6.53 1.58 6.53 5.62 0 3.33-2.27 5.84-7 5.84a9.81 9.81 0 0 1-7.39-2.89z"></path></g></g></svg>