<?xml version="1.0"?>
<svg xmlns="http://www.w3.org/2000/svg" xmlns:xlink="http://www.w3.org/1999/xlink" x="0px" y="0px" width="300px" height="64.283px"
	 viewBox="0 0 300 64.283" xml:space="preserve">
<path fill="#010101" d="M208.997,53.681h12.816l-9.223-15.827c5.104-2.149,8.002-6.266,8.002-11.716
	c0-8.12-5.33-13.449-15.884-13.449h-20.235v40.992h11.13V39.475h5.626L208.997,53.681z M209.466,26.138c0,2.9-1.974,4.99-6.094,4.99
	h-7.769v-9.976h7.769C207.492,21.153,209.466,23.239,209.466,26.138 M164.526,24.225v13.102c0,5.915-2.896,8.002-6.666,8.002
	c-3.765,0-6.724-2.087-6.724-7.946V24.225H139.77v13.682c0,10.782,5.974,16.7,18.091,16.7c12.178,0,18.038-5.918,18.038-16.642
	v-13.74H164.526z M151.137,12.689h-11.364v7.713h11.364V12.689z M164.526,20.399h11.369v-7.713h-11.369V20.399z M92.919,39.821
	l-5.742-27.132H75.868l10.44,40.992h12.003l7.016-26.729l7.015,26.729h12.006l10.435-40.992h-11.307l-5.742,27.132l-7.132-27.132
	H100.05L92.919,39.821z M288.58,27.357h-13.804V12.689h-11.363v40.992h11.363V36.639h13.804v17.042H300V12.689h-11.42V27.357z
	 M235.348,21.615v32.066h11.364V21.615h10.551v-8.926h-32.467v8.926H235.348z"/>
<polygon fill="#E21F26" points="58.741,25.177 0,25.177 0,0 24.447,0 24.447,9.9 34.296,9.9 34.296,0 58.741,0 "/>
<path fill="#E21F26" d="M34.296,54.425v9.857c14.06-2.64,24.445-14.886,24.445-28.638v-0.519H0v0.519
	c0,13.752,10.393,25.998,24.447,28.638v-9.857H34.296z"/>
</svg>
